<svg viewBox="0 0 512 512" xml:space="preserve" xmlns="http://www.w3.org/2000/svg" enable-background="new 0 0 512 512"><path d="M339.447 227.254c-17.725-37.352-35.427-74.719-47.191-99.661-6.148-13.144-19.423-21.604-33.871-21.604-14.372 0-27.604 8.381-33.748 21.313-13.57 28.901-35.113 74.257-55.416 117.053-14.91 31.398-29.153 61.39-39.115 82.515-3.188 6.729-4.869 14.149-4.869 21.505 0 28.147 22.907 51.033 51.071 51.033 18.836 0 44.657-15.594 67.478-37.721-25.423-29.62-43.753-65.52-43.753-95.321 0-32.151 26.177-58.309 58.353-58.309 32.173 0 58.35 26.157 58.35 58.309 0 29.824-18.334 65.701-43.754 95.321 22.819 22.127 48.64 37.721 67.476 37.721 28.165 0 51.071-22.886 51.048-51.033 0-7.355-1.676-14.775-4.865-21.482a60266.863 60266.863 0 0 0-47.194-99.639z" fill="#bd5f5f" class="fill-000000"></path><path d="M258.385 228.994c-20.6 0-37.378 16.768-37.378 37.37 0 24.939 15.959 54.723 37.378 79.767 21.392-25.064 37.372-54.827 37.372-79.767 0-20.602-16.778-37.37-37.372-37.37z" fill="#bd5f5f" class="fill-000000"></path><path d="M376 16H136C69.726 16 16 69.726 16 136v240c0 66.274 53.726 120 120 120h240c66.274 0 120-53.726 120-120V136c0-66.274-53.726-120-120-120zm-35.544 404.368c-25.594 0-56.065-17.795-82.071-43.137-26.012 25.342-56.483 43.137-82.077 43.137-39.722 0-72.043-32.298-72.023-71.973 0-10.437 2.375-20.98 6.884-30.474 9.938-21.108 24.202-51.122 39.111-82.537 20.285-42.756 41.824-88.07 55.376-116.993 9.604-20.267 30.308-33.366 52.729-33.366 22.564 0 43.309 13.226 52.871 33.66a71053.048 71053.048 0 0 0 47.174 99.596c17.723 37.35 35.425 74.718 47.193 99.658 4.486 9.476 6.877 20.02 6.877 30.434 0 39.697-32.321 71.995-72.044 71.995z" fill="#bd5f5f" class="fill-000000"></path></svg>