<svg id="Layer_1" data-name="Layer 1" xmlns="http://www.w3.org/2000/svg" width="668" height="668" viewBox="0 0 668 668"><defs><style>.cls-1{fill:#273b7d;}.cls-2{fill:#499fdd;}.cls-3{fill:none;}</style></defs><title>booking_com_icon_logo</title><path class="cls-1" d="M293.77,576.37h-102v-122c0-26,10-40,32.41-42.72h70a76,76,0,0,1,82,82.22c0,52-31.42,83-82,83ZM191.54,246.44V214.36c0-28,12-41.62,38-43.22H282c44.81,0,72,26.81,72,72,0,34-18.42,74-70,74H192ZM424.42,368.49,406,358.08l16-14c18.8-16,50-52.41,50-115,0-96-74.41-158-189.46-158h-146A64,64,0,0,0,74.7,134.42V678.6H285.17c128.05,0,210.48-69.63,210.48-177.66,0-58-26.61-108-71.62-133" transform="translate(-41 -41)"/><path class="cls-2" d="M528.85,605.58a73.23,73.23,0,1,1,73,73.42,73.13,73.13,0,0,1-73-73.42" transform="translate(-41 -41)"/><rect class="cls-3" width="668" height="668"/></svg>